<svg xmlns="http://www.w3.org/2000/svg" viewBox="0 0 64 64">
  <!-- Paw print with clean water drop -->
  
  <!-- 4 Toe pads -->
  <ellipse cx="13" cy="16" rx="6" ry="8" fill="#102a43"/>
  <ellipse cx="27" cy="8" rx="5.5" ry="7" fill="#102a43"/>
  <ellipse cx="41" cy="8" rx="5.5" ry="7" fill="#102a43"/>
  <ellipse cx="55" cy="16" rx="6" ry="8" fill="#102a43"/>
  
  <!-- Main pad -->
  <path 
    d="M34 24 
       C20 24, 8 38, 12 52 
       C14 58, 24 64, 34 64 
       C44 64, 54 58, 56 52 
       C60 38, 48 24, 34 24 Z"
    fill="#102a43"
  />
  
  <!-- Clean water drop cutout (classic teardrop shape) -->
  <path 
    d="M34 33
       C34 33, 26 44, 26 50
       C26 54.4, 29.6 58, 34 58
       C38.4 58, 42 54.4, 42 50
       C42 44, 34 33, 34 33 Z"
    fill="white"
  />
</svg>
