<svg xmlns="http://www.w3.org/2000/svg" viewBox="0 0 100 100">
  <!-- Logo DOGGYWASH - Version icône seule pour campagnes publicitaires -->
  
  <!-- Paw print with clean water drop -->
  
  <!-- 4 Toe pads -->
  <ellipse cx="20" cy="25" rx="9" ry="12" fill="#0A2540"/>
  <ellipse cx="42" cy="12" rx="8.5" ry="11" fill="#0A2540"/>
  <ellipse cx="64" cy="12" rx="8.5" ry="11" fill="#0A2540"/>
  <ellipse cx="86" cy="25" rx="9" ry="12" fill="#0A2540"/>
  
  <!-- Main pad -->
  <path 
    d="M53 37 
       C31 37, 12 59, 19 81 
       C22 90, 37 100, 53 100 
       C69 100, 84 90, 87 81 
       C94 59, 75 37, 53 37 Z"
    fill="#0A2540"
  />
  
  <!-- Clean water drop cutout -->
  <path 
    d="M53 51
       C53 51, 40 68, 40 78
       C40 85, 46 91, 53 91
       C60 91, 66 85, 66 78
       C66 68, 53 51, 53 51 Z"
    fill="#8dbdde"
  />
</svg>

